<svg width="142" height="55" viewBox="0 0 142 55" fill="none" xmlns="http://www.w3.org/2000/svg">
<path d="M74.4147 15.686C71.303 13.1901 67.1565 11.6237 61.9049 11.6237C50.8116 11.6237 41.8138 21.2232 41.8138 33.061C41.8138 44.8988 50.8116 54.51 61.9049 54.51C67.1658 54.51 71.303 52.9459 74.4147 50.4478V53.7257H85.2012V12.3823H74.4147V15.686ZM63.5298 44.578C57.4915 44.578 52.6028 39.4271 52.6028 33.0634C52.6028 26.6996 57.4915 21.558 63.5298 21.558C66.5824 21.558 69.5101 22.7707 71.6686 24.9292C73.8272 27.0878 75.0398 30.0153 75.0398 33.0681C75.0398 36.1207 73.8272 39.0482 71.6686 41.2068C69.5101 43.3653 66.5824 44.578 63.5298 44.578ZM128.282 53.735H139.068V20.5606H128.282V53.735ZM126.174 9.87943C126.174 11.8684 126.965 13.7759 128.371 15.1822C129.777 16.5886 131.685 17.3787 133.673 17.3787C135.663 17.3787 137.57 16.5886 138.977 15.1822C140.383 13.7759 141.174 11.8684 141.174 9.87943C141.174 4.14082 136.51 0.13948 129.759 0.00368273C121.916 -0.143821 112.021 4.11506 107.591 17.2125V12.3823H96.8119V53.735H107.594V29.6965C107.594 14.2132 116.428 1.64262 129.693 1.77607C130.925 1.79652 132.145 1.9993 133.315 2.3778C131.39 2.47221 129.575 3.3039 128.245 4.70051C126.917 6.0971 126.175 7.95152 126.177 9.87943H126.174ZM42.9097 12.3823H27.6746L10.7865 28.4017V0.467267H0V53.735H10.7865V38.6755L27.6746 53.735H42.8254L20.6341 33.1032L42.9097 12.3823Z" fill="white"/>
</svg>
