<svg width="201" height="13" viewBox="0 0 201 13" fill="none" xmlns="http://www.w3.org/2000/svg">
<path fill-rule="evenodd" clip-rule="evenodd" d="M7.08003 13C3.57219 13 -1.06318 12.0663 0.218013 8.03864L2.74168 0.0947132H6.95171L4.60425 7.45742C4.09888 9.05588 5.20397 10.0715 8.00859 10.0715C10.8379 10.0715 12.5747 9.04114 13.0817 7.45742L15.423 0.0947132H19.6056L17.0794 8.03864C15.8218 12.0093 10.672 13 7.08003 13ZM32.6727 4.11085C32.3868 5.011 31.6518 5.33226 31.0372 5.33226H24.3569L25.0849 3.0287H31.6804C32.478 3.0287 32.9034 3.40777 32.6727 4.11085ZM33.4809 0.0947132H21.8142L17.778 12.782H21.9858L23.4202 8.26317H26.5897L28.9033 12.782H34.4125L31.4552 7.82556L32.2153 7.82588C34.1375 7.82588 36.0858 6.19751 36.809 3.91283C37.6542 1.28303 35.9291 0.0947132 33.4809 0.0947132ZM43.9488 7.80117L47.7873 3.46377L48.8547 7.80117H43.9488ZM51.063 0H46.8078L34.4451 12.782H39.6078L41.6242 10.4908H49.4851L50.0371 12.782H55.2776L51.063 0ZM56.1486 12.7823L60.1865 0.0947132H64.3841L61.3273 9.69766H72.5992L70.5747 12.7823H56.1486ZM79.3673 9.05418H88.6608L86.6436 0.844677L79.3673 9.05418ZM189.016 12.7711C186.432 12.7711 184.203 12.5265 182.373 12.0421L183.189 10.8177C184.53 11.2584 186.652 11.8823 190.007 11.8823C192.625 11.8823 196.629 11.1366 197.329 9.09905C197.911 7.39941 194.123 7.2646 191.113 7.03148C188.434 6.81384 185.442 6.74543 184.608 5.33756C184.536 5.21612 184.299 4.85795 184.625 3.81706C185.329 1.58393 189.492 0.0243942 194.748 0.0243942C197.168 0.0243942 199.458 0.266321 201 0.672008L200.229 1.89448C198.654 1.28971 196.283 0.932814 193.772 0.932814C190.86 0.932814 186.641 1.61712 186.078 3.38358C185.926 3.858 185.913 4.21172 186.156 4.60839C186.746 5.56793 189.561 5.38975 192.415 5.44659C195.418 5.50684 198.799 5.64302 199.326 7.0581C199.373 7.1841 199.646 7.69054 199.325 8.70747C198.334 11.8397 193.139 12.7711 189.016 12.7711ZM164.513 12.5585L168.488 0.129502H182.35L182.058 1.05479H169.572L168.192 5.38974H180.692L180.397 6.31959H167.904L166.216 11.6345H178.701L178.406 12.5585H164.513ZM142.131 12.5585L146.111 0L158.843 10.4795L162.174 0.129077H163.636L159.63 12.6961L146.775 1.99492L143.605 12.5365L142.131 12.5585ZM119.862 12.5585L123.814 0.129077H125.275L121.751 11.21H133.376L132.943 12.5585H119.862ZM104.398 6.16739H113.442C114.766 6.16739 116.392 5.31985 116.802 4.00818C117.085 3.09446 117.827 1.33214 114.168 1.33214H105.918L104.398 6.16739ZM111.645 12.5577L109.016 7.35687H104.031L102.394 12.5577H100.908L104.811 0.139047H115.492C116.81 0.139047 117.751 0.404838 118.169 1.00791C118.487 1.46588 118.958 2.39169 118.682 3.26883C118.013 5.4099 116.323 7.13627 114.581 7.13627H110.421L113.726 12.5507L111.645 12.5577ZM135.703 12.5585L139.638 0.129077H141.208L137.263 12.5585H135.703ZM93.9983 12.5585L97.9517 0.129077H99.521L95.5574 12.5585H93.9983ZM89.4768 12.5585L88.8446 9.95496H78.6355L76.3429 12.5585H74.4272L85.4461 0.145623L87.9828 0.129502L91.1844 12.5292L89.4768 12.5585Z" fill="white"/>
</svg>
