<svg width="182" height="182" viewBox="0 0 182 182" fill="none" xmlns="http://www.w3.org/2000/svg">
<path d="M91 182C141.258 182 182 141.258 182 91C182 40.7421 141.258 0 91 0C40.7421 0 0 40.7421 0 91C0 141.258 40.7421 182 91 182Z" fill="#1E959B"/>
<path d="M87.9139 136.828H94.9016C95.8664 136.828 96.6485 136.046 96.6485 135.081C96.6485 134.116 95.8664 133.334 94.9016 133.334H87.9139C86.9492 133.334 86.167 134.116 86.167 135.081C86.167 136.046 86.9492 136.828 87.9139 136.828Z" fill="#F8FFFF"/>
<path d="M61.7098 65.2039C62.6746 65.2039 63.4567 64.4217 63.4567 63.457V52.9754H119.358V66.9508C119.358 67.9156 120.141 68.6978 121.105 68.6978C122.07 68.6978 122.852 67.9156 122.852 66.9508V45.9877C122.852 42.8432 118.82 39 114.118 39H68.6975C63.876 39.0057 59.9686 42.9131 59.9629 47.7346V63.457C59.9629 64.4217 60.7451 65.2039 61.7098 65.2039ZM63.4567 47.7346C63.4567 44.8402 65.8031 42.4939 68.6975 42.4939H114.118C117.145 42.4939 119.358 44.9396 119.358 45.9877V49.4816H63.4567V47.7346Z" fill="#F8FFFF"/>
<path d="M121.105 115.865C120.141 115.865 119.358 116.647 119.358 117.612V126.346H63.4567V119.359C63.4567 118.394 62.6746 117.612 61.7098 117.612C60.7451 117.612 59.9629 118.394 59.9629 119.359V135.081C59.9686 139.903 63.876 143.81 68.6975 143.816H114.118C118.939 143.81 122.847 139.903 122.852 135.081V117.612C122.852 116.647 122.07 115.865 121.105 115.865ZM119.358 135.081C119.358 137.976 117.012 140.322 114.118 140.322H68.6975C65.8031 140.322 63.4567 137.976 63.4567 135.081V129.84H119.358V135.081Z" fill="#F8FFFF"/>
<path d="M87.9136 44.2407H84.4198C83.455 44.2407 82.6729 45.0229 82.6729 45.9876C82.6729 46.9524 83.455 47.7346 84.4198 47.7346H87.9136C88.8784 47.7346 89.6606 46.9524 89.6606 45.9876C89.6606 45.0229 88.8784 44.2407 87.9136 44.2407Z" fill="#F8FFFF"/>
<path d="M98.3951 44.2407H94.9012C93.9365 44.2407 93.1543 45.0229 93.1543 45.9876C93.1543 46.9524 93.9365 47.7346 94.9012 47.7346H98.3951C99.3598 47.7346 100.142 46.9524 100.142 45.9876C100.142 45.0229 99.3598 44.2407 98.3951 44.2407Z" fill="#F8FFFF"/>
<path d="M143.414 72.8223C143.081 72.4225 142.588 72.1912 142.068 72.1916H96.215L95.3241 66.184C94.9308 63.6208 92.7323 61.7238 90.1392 61.7101H82.6729V65.2039H90.1392C91.0059 65.2033 91.742 65.8383 91.8687 66.6958L97.9724 107.897C98.3657 110.46 100.564 112.357 103.157 112.371H107.451C108.398 115.088 111.368 116.523 114.084 115.577C115.586 115.053 116.767 113.873 117.29 112.371H124.921C125.885 115.1 128.88 116.53 131.608 115.565C134.337 114.6 135.767 111.606 134.802 108.877C133.838 106.148 130.843 104.718 128.115 105.683C126.622 106.211 125.448 107.385 124.921 108.877H117.29C116.343 106.16 113.374 104.725 110.657 105.672C109.155 106.195 107.974 107.375 107.451 108.877H103.157C102.293 108.873 101.559 108.24 101.428 107.385L100.872 103.636H136.828C137.667 103.636 138.388 103.038 138.543 102.213L143.784 74.2618C143.881 73.7508 143.745 73.223 143.414 72.8223ZM129.84 108.877C130.805 108.877 131.587 109.659 131.587 110.624C131.587 111.589 130.805 112.371 129.84 112.371C128.875 112.371 128.093 111.589 128.093 110.624C128.093 109.659 128.875 108.877 129.84 108.877ZM112.371 108.877C113.335 108.877 114.118 109.659 114.118 110.624C114.118 111.589 113.335 112.371 112.371 112.371C111.406 112.371 110.624 111.589 110.624 110.624C110.624 109.659 111.406 108.877 112.371 108.877ZM135.378 100.142H100.355L96.7339 75.6855H139.972L135.378 100.142Z" fill="#F8FFFF"/>
<path d="M84.4201 91.4078C84.4201 78.8653 74.2526 68.6978 61.7101 68.6978C49.1676 68.6978 39 78.8653 39 91.4078C39 103.95 49.1676 114.118 61.7101 114.118C74.2464 114.103 84.4057 103.944 84.4201 91.4078ZM42.4939 91.4078C42.4939 80.795 51.0973 72.1916 61.7101 72.1916C72.3229 72.1916 80.9263 80.795 80.9263 91.4078C80.9263 102.021 72.3229 110.624 61.7101 110.624C51.1025 110.612 42.5063 102.015 42.4939 91.4078Z" fill="#F8FFFF"/>
<path d="M63.4573 105.383V103.388C67.1872 102.428 69.4327 98.6263 68.4727 94.8964C67.6787 91.8118 64.8957 89.6569 61.7104 89.6608C59.7807 89.6608 58.2165 88.0967 58.2165 86.167C58.2165 84.2373 59.7807 82.6731 61.7104 82.6731C63.6401 82.6731 65.2042 84.2373 65.2042 86.167C65.2042 87.1317 65.9864 87.9139 66.9511 87.9139C67.9159 87.9139 68.6981 87.1317 68.6981 86.167C68.6861 82.9904 66.5332 80.2215 63.4573 79.4273V77.4324C63.4573 76.4676 62.6751 75.6854 61.7104 75.6854C60.7456 75.6854 59.9634 76.4676 59.9634 77.4324V79.4273C56.2335 80.3873 53.9881 84.1893 54.948 87.9192C55.742 91.0038 58.5251 93.1586 61.7104 93.1547C63.6401 93.1547 65.2042 94.7189 65.2042 96.6486C65.2042 98.5783 63.6401 100.142 61.7104 100.142C59.7807 100.142 58.2165 98.5783 58.2165 96.6486C58.2165 95.6838 57.4343 94.9016 56.4696 94.9016C55.5048 94.9016 54.7227 95.6838 54.7227 96.6486C54.7347 99.8251 56.8875 102.594 59.9634 103.388V105.383C59.9634 106.348 60.7456 107.13 61.7104 107.13C62.6751 107.13 63.4573 106.348 63.4573 105.383Z" fill="#F8FFFF"/>
<path d="M101.89 80.9262H126.346C127.311 80.9262 128.093 80.144 128.093 79.1793C128.093 78.2146 127.311 77.4324 126.346 77.4324H101.89C100.925 77.4324 100.143 78.2146 100.143 79.1793C100.143 80.144 100.925 80.9262 101.89 80.9262Z" fill="#F8FFFF"/>
<path d="M131.587 80.9262H135.081C136.045 80.9262 136.828 80.144 136.828 79.1793C136.828 78.2146 136.045 77.4324 135.081 77.4324H131.587C130.622 77.4324 129.84 78.2146 129.84 79.1793C129.84 80.144 130.622 80.9262 131.587 80.9262Z" fill="#F8FFFF"/>
</svg>
