<svg width="182" height="182" viewBox="0 0 182 182" fill="none" xmlns="http://www.w3.org/2000/svg">
<path d="M91 182C141.258 182 182 141.258 182 91C182 40.7421 141.258 0 91 0C40.7421 0 0 40.7421 0 91C0 141.258 40.7421 182 91 182Z" fill="#1E959B"/>
<path d="M145.223 97.8569C145.223 86.181 136.987 76.4043 126.022 73.999V50.7276C126.022 45.9152 122.107 42 117.294 42H71.9105C67.0981 42 63.1829 45.9152 63.1829 50.7276V69.9284H53.092L52.0395 74.1456L48.3145 71.9096L38.9794 81.2395L41.2154 84.9679L37 86.0205V99.2201L41.2172 100.273L38.9794 104.001L48.3128 113.333L52.0377 111.097L53.092 115.312H63.1829V141.495C63.1829 146.307 67.0981 150.223 71.9105 150.223H117.294C122.107 150.223 126.022 146.307 126.022 141.495V121.715C136.987 119.309 145.223 109.533 145.223 97.8569ZM141.732 97.8569C141.732 101.259 140.899 104.464 139.454 107.307C138.485 104.642 136.256 102.545 133.376 101.824L126.022 99.9847V99.5675C128.197 97.9284 129.513 95.3503 129.513 92.622V89.131C129.513 86.6925 128.481 84.3465 126.682 82.6952C124.884 81.0492 122.447 80.2218 120.01 80.4365C115.55 80.8223 112.058 84.8021 112.058 89.4906V92.6203C112.058 95.3486 113.374 97.9267 115.549 99.5657V99.9829L108.195 101.823C105.315 102.544 103.086 104.64 102.117 107.305C100.672 104.464 99.839 101.259 99.839 97.8569C99.839 86.3067 109.235 76.9105 120.785 76.9105C132.335 76.9105 141.732 86.3067 141.732 97.8569ZM115.549 73.999C114.348 74.2626 113.185 74.6257 112.058 75.0585V74.9284C112.058 72.167 109.819 69.9284 107.058 69.9284H82.1471C79.3857 69.9284 77.1471 72.167 77.1471 74.9284V89.3658C77.1471 92.1272 79.3857 94.3658 82.1471 94.3658H96.6272C96.4614 95.5091 96.3479 96.6682 96.3479 97.8569C96.3479 109.533 104.583 119.309 115.549 121.715C115.549 123.963 113.726 125.785 111.478 125.785H78.6561C75.8946 125.785 73.6561 123.547 73.6561 120.785V71.4374C73.6561 68.676 75.8947 66.4374 78.6561 66.4374H110.549C113.31 66.4374 115.549 68.676 115.549 71.4374V73.999ZM97.3778 90.8748H85.6382C82.8768 90.8748 80.6382 88.6362 80.6382 85.8748V78.4195C80.6382 75.6581 82.8768 73.4195 85.6382 73.4195H105.261C107.086 73.4195 108.567 74.8997 108.567 76.7255C103.236 79.8203 99.1757 84.8579 97.3778 90.8748ZM71.9105 45.4911H117.294C120.181 45.4911 122.531 47.8405 122.531 50.7276V55.9642H66.674V50.7276C66.674 47.8405 69.0234 45.4911 71.9105 45.4911ZM63.1829 100.601C62.0815 101.086 60.8928 101.348 59.6919 101.348C54.8794 101.348 50.9642 97.4327 50.9642 92.6203C50.9642 87.8079 54.8794 83.8927 59.6919 83.8927C60.8928 83.8927 62.0815 84.1545 63.1829 84.6397V100.601ZM55.8185 111.821L54.9685 108.419L54.6141 107.485L52.6207 106.675L48.8539 108.937L43.3764 103.458L45.6386 99.6897L44.7659 97.5601L40.4911 96.4936V88.747L44.7606 87.6805L45.6386 85.5509L43.3764 81.7823L48.8539 76.3031L52.6207 78.5653L54.7503 77.6995L55.8185 73.4195H63.1829V80.934C62.0501 80.5936 60.8771 80.4016 59.6919 80.4016C52.9541 80.4016 47.4732 85.8843 47.4732 92.6203C47.4732 99.3563 52.9541 104.839 59.6919 104.839C60.8771 104.839 62.0501 104.647 63.1829 104.307V111.821H55.8185ZM117.294 146.732H71.9105C69.0234 146.732 66.674 144.382 66.674 141.495V141.258C66.674 138.497 68.9125 136.258 71.674 136.258H122.531V141.495C122.531 144.382 120.181 146.732 117.294 146.732ZM122.531 127.767C122.531 130.529 120.292 132.767 117.531 132.767H71.674C68.9125 132.767 66.674 130.529 66.674 127.767V59.4553H122.531V73.5085C121.951 73.4666 121.375 73.4195 120.785 73.4195C120.195 73.4195 119.619 73.4666 119.04 73.5085V67.9463C119.04 65.1849 116.801 62.9463 114.04 62.9463H75.165C72.4036 62.9463 70.165 65.1849 70.165 67.9463V124.276C70.165 127.038 72.4036 129.276 75.165 129.276H114.04C116.801 129.276 119.04 127.038 119.04 124.276V122.205C119.619 122.247 120.195 122.294 120.785 122.294C121.375 122.294 121.951 122.247 122.531 122.205V127.767ZM120.785 118.803C114.528 118.803 108.917 116.03 105.076 111.666V110.29C105.076 107.883 106.708 105.794 109.041 105.209L116.201 103.42C117.869 103.004 119.04 101.505 119.04 99.7854V98.6335C119.04 98.0122 118.709 97.4378 118.172 97.1255C116.53 96.169 115.549 94.4845 115.549 92.6203V89.4906C115.549 86.5947 117.642 84.1458 120.312 83.9136C121.81 83.7932 123.229 84.2645 124.324 85.2681C125.402 86.2578 126.022 87.6647 126.022 89.1292V92.6203C126.022 94.4845 125.041 96.169 123.398 97.1255C122.861 97.4378 122.531 98.0122 122.531 98.6335V99.7854C122.531 101.505 123.701 103.004 125.369 103.42L132.529 105.209C134.863 105.794 136.495 107.883 136.495 110.29V111.666C132.653 116.03 127.043 118.803 120.785 118.803Z" fill="#F8FFFF"/>
<path d="M101.585 50.7276C101.585 49.7636 102.366 48.9821 103.33 48.9821C104.295 48.9821 105.076 49.7636 105.076 50.7276C105.076 51.6916 104.295 52.4731 103.33 52.4731C102.366 52.4731 101.585 51.6916 101.585 50.7276Z" fill="#F8FFFF"/>
<path d="M84.1289 50.7276C84.1289 49.7636 84.9104 48.9821 85.8744 48.9821H96.3476C97.3116 48.9821 98.0931 49.7636 98.0931 50.7276C98.0931 51.6916 97.3116 52.4731 96.3476 52.4731H85.8744C84.9104 52.4731 84.1289 51.6916 84.1289 50.7276Z" fill="#F8FFFF"/>
<path d="M87.6201 141.495C87.6201 140.531 88.4016 139.75 89.3656 139.75H99.8388C100.803 139.75 101.584 140.531 101.584 141.495C101.584 142.459 100.803 143.241 99.8388 143.241H89.3656C88.4016 143.241 87.6201 142.459 87.6201 141.495Z" fill="#F8FFFF"/>
<path d="M112.058 141.495C112.058 140.531 112.839 139.75 113.803 139.75C114.767 139.75 115.549 140.531 115.549 141.495C115.549 142.459 114.767 143.241 113.803 143.241C112.839 143.241 112.058 142.459 112.058 141.495Z" fill="#F8FFFF"/>
<path d="M73.6562 141.495C73.6562 140.531 74.4377 139.75 75.4018 139.75C76.3658 139.75 77.1473 140.531 77.1473 141.495C77.1473 142.459 76.3658 143.241 75.4018 143.241C74.4377 143.241 73.6562 142.459 73.6562 141.495Z" fill="#F8FFFF"/>
<path d="M77.1475 99.6025C77.1475 98.6384 77.929 97.8569 78.893 97.8569H91.1117C92.0757 97.8569 92.8572 98.6384 92.8572 99.6025C92.8572 100.566 92.0757 101.348 91.1117 101.348H78.893C77.929 101.348 77.1475 100.566 77.1475 99.6025Z" fill="#F8FFFF"/>
<path d="M77.1475 106.585C77.1475 105.62 77.929 104.839 78.893 104.839H91.1117C92.0757 104.839 92.8572 105.62 92.8572 106.585C92.8572 107.549 92.0757 108.33 91.1117 108.33H78.893C77.929 108.33 77.1475 107.549 77.1475 106.585Z" fill="#F8FFFF"/>
<path d="M77.1475 113.567C77.1475 112.603 77.929 111.821 78.893 111.821H91.1117C92.0757 111.821 92.8572 112.603 92.8572 113.567C92.8572 114.531 92.0757 115.312 91.1117 115.312H78.893C77.929 115.312 77.1475 114.531 77.1475 113.567Z" fill="#F8FFFF"/>
<path d="M77.1475 120.549C77.1475 119.585 77.929 118.803 78.893 118.803H91.1117C92.0757 118.803 92.8572 119.585 92.8572 120.549C92.8572 121.513 92.0757 122.294 91.1117 122.294H78.893C77.929 122.294 77.1475 121.513 77.1475 120.549Z" fill="#F8FFFF"/>
<path d="M134.749 73.4194C137.636 73.4194 139.986 71.07 139.986 68.1829C139.986 67.1712 139.696 66.2295 139.195 65.4321C138.071 63.6419 136.495 61.856 136.495 59.742V50.7276C136.495 49.7636 135.713 48.9821 134.749 48.9821C133.785 48.9821 133.004 49.7636 133.004 50.7276V59.742C133.004 61.856 131.428 63.6419 130.304 65.4321C129.803 66.2295 129.513 67.1712 129.513 68.1829C129.513 71.07 131.862 73.4194 134.749 73.4194ZM134.749 66.4373C135.711 66.4373 136.495 67.2193 136.495 68.1829C136.495 69.1464 135.711 69.9284 134.749 69.9284C133.787 69.9284 133.004 69.1464 133.004 68.1829C133.004 67.2193 133.787 66.4373 134.749 66.4373Z" fill="#F8FFFF"/>
<path d="M133.004 43.7455C133.004 42.7815 133.785 42 134.749 42C135.713 42 136.495 42.7815 136.495 43.7455C136.495 44.7096 135.713 45.4911 134.749 45.4911C133.785 45.4911 133.004 44.7096 133.004 43.7455Z" fill="#F8FFFF"/>
<path d="M54.4553 118.803C51.5682 118.803 49.2188 121.153 49.2188 124.04C49.2188 125.051 49.5089 125.993 50.0096 126.791C51.1339 128.581 52.7098 130.367 52.7098 132.481V141.495C52.7098 142.459 53.4913 143.241 54.4553 143.241C55.4194 143.241 56.2009 142.459 56.2009 141.495V132.481C56.2009 130.367 57.7768 128.581 58.901 126.791C59.4018 125.993 59.6919 125.051 59.6919 124.04C59.6919 121.153 57.3424 118.803 54.4553 118.803ZM54.4553 125.785C53.4935 125.785 52.7098 125.003 52.7098 124.04C52.7098 123.076 53.4935 122.294 54.4553 122.294C55.4171 122.294 56.2009 123.076 56.2009 124.04C56.2009 125.003 55.4171 125.785 54.4553 125.785Z" fill="#F8FFFF"/>
<path d="M52.71 148.477C52.71 147.513 53.4915 146.732 54.4555 146.732C55.4195 146.732 56.201 147.513 56.201 148.477C56.201 149.441 55.4195 150.223 54.4555 150.223C53.4915 150.223 52.71 149.441 52.71 148.477Z" fill="#F8FFFF"/>
</svg>
