<svg width="182" height="182" viewBox="0 0 182 182" fill="none" xmlns="http://www.w3.org/2000/svg">
<path d="M91 182C141.258 182 182 141.258 182 91C182 40.7421 141.258 0 91 0C40.7421 0 0 40.7421 0 91C0 141.258 40.7421 182 91 182Z" fill="#1E959B"/>
<path d="M139.985 141.241H129.512C128.124 141.239 126.793 140.687 125.811 139.705C124.829 138.723 124.277 137.392 124.275 136.004V113.312C124.277 111.924 124.829 110.593 125.811 109.611C126.793 108.629 128.124 108.077 129.512 108.076H139.985C141.373 108.077 142.705 108.629 143.686 109.611C144.668 110.593 145.22 111.924 145.222 113.312V136.004C145.22 137.392 144.668 138.723 143.686 139.705C142.705 140.687 141.373 141.239 139.985 141.241ZM129.512 111.567C129.049 111.567 128.606 111.751 128.278 112.078C127.951 112.406 127.767 112.849 127.766 113.312V136.004C127.767 136.467 127.951 136.91 128.278 137.238C128.606 137.565 129.049 137.749 129.512 137.75H139.985C140.448 137.749 140.892 137.565 141.219 137.238C141.546 136.91 141.73 136.467 141.731 136.004V113.312C141.73 112.849 141.546 112.406 141.219 112.078C140.892 111.751 140.448 111.567 139.985 111.567H129.512Z" fill="#F8FFFF"/>
<path d="M134.748 136.004C135.712 136.004 136.494 135.222 136.494 134.258C136.494 133.294 135.712 132.513 134.748 132.513C133.784 132.513 133.003 133.294 133.003 134.258C133.003 135.222 133.784 136.004 134.748 136.004Z" fill="#F8FFFF"/>
<path d="M133.003 115.058C133.003 116.022 133.784 116.803 134.748 116.803C135.712 116.803 136.494 116.022 136.494 115.058C136.494 114.094 135.712 113.312 134.748 113.312C133.784 113.312 133.003 114.094 133.003 115.058Z" fill="#F8FFFF"/>
<path d="M40.4897 109.821H40.4854L44.9779 130.767L40.4897 109.821ZM44.9779 130.767V130.794C45.1546 130.776 45.3336 130.767 45.5147 130.767H44.9779ZM40.4897 109.821H40.4854L44.9779 130.767L40.4897 109.821ZM44.9779 130.767V130.794C45.1546 130.776 45.3336 130.767 45.5147 130.767H44.9779Z" fill="#F8FFFF"/>
<path d="M98.5398 130.767H77.1811C77.1809 130.522 77.1546 130.277 77.1026 130.037L72.6122 109.09C72.4419 108.311 72.0111 107.612 71.3908 107.111C70.7704 106.609 69.9976 106.334 69.1997 106.33H40.4901C39.9697 106.33 39.4558 106.446 38.9861 106.671C38.5165 106.895 38.1029 107.221 37.7757 107.626C37.4486 108.031 37.2161 108.504 37.0953 109.01C36.9745 109.516 36.9685 110.043 37.0776 110.552L41.5658 131.498C41.6237 131.769 41.7145 132.031 41.8364 132.28C41.0972 133.009 40.5917 133.942 40.3841 134.959C40.1766 135.977 40.2763 137.033 40.6707 137.994C41.0651 138.954 41.7362 139.776 42.5989 140.354C43.4615 140.932 44.4766 141.241 45.5151 141.241H98.5398C99.9287 141.241 101.261 140.689 102.243 139.707C103.225 138.725 103.776 137.393 103.776 136.004C103.776 134.615 103.225 133.283 102.243 132.301C101.261 131.319 99.9287 130.767 98.5398 130.767H98.5398ZM69.1997 109.821L73.6879 130.767H51.4106L46.918 109.821H69.1997H69.1997ZM40.4858 109.821H43.4292C43.4293 110.067 43.4556 110.312 43.5077 110.552L47.8388 130.767H45.5151C45.334 130.767 45.155 130.776 44.9783 130.794V130.767L40.4858 109.821ZM72.3569 137.75H45.5151C45.0521 137.75 44.6081 137.566 44.2808 137.238C43.9534 136.911 43.7695 136.467 43.7695 136.004C43.7695 135.541 43.9534 135.097 44.2808 134.77C44.6081 134.442 45.0521 134.259 45.5151 134.259H72.3569C72.8199 134.259 73.2638 134.442 73.5912 134.77C73.9185 135.097 74.1024 135.541 74.1024 136.004C74.1024 136.467 73.9185 136.911 73.5912 137.238C73.2638 137.566 72.8199 137.75 72.3569 137.75H72.3569ZM98.5398 137.75H77.2924C77.6939 136.621 77.6939 135.388 77.2924 134.259H98.5398C99.0028 134.259 99.4468 134.442 99.7741 134.77C100.101 135.097 100.285 135.541 100.285 136.004C100.285 136.467 100.101 136.911 99.7741 137.238C99.4468 137.566 99.0028 137.75 98.5398 137.75Z" fill="#F8FFFF"/>
<path d="M116.421 129.022C114.011 129.022 112.057 130.976 112.057 133.386V133.846C112.054 134.695 112.289 135.528 112.736 136.251C113.183 136.973 113.823 137.556 114.584 137.933C114.936 138.109 115.218 138.398 115.385 138.755C115.551 139.111 115.593 139.513 115.503 139.896C115.412 140.279 115.195 140.62 114.887 140.864C114.578 141.108 114.196 141.241 113.803 141.241H108.566C107.602 141.241 106.821 140.459 106.821 139.495V138.769C106.821 138.206 107.277 137.75 107.84 137.75C108.616 137.75 109.122 136.904 108.901 136.161C108.678 135.413 108.564 134.633 108.566 133.846C108.566 131.182 106.406 129.022 103.742 129.022H82.3832C81.4192 129.022 80.6377 128.24 80.6377 127.276C80.6377 126.312 81.4192 125.531 82.3832 125.531H119.039C120.003 125.531 120.785 126.312 120.785 127.276C120.785 128.24 120.003 129.022 119.039 129.022H116.421Z" fill="#F8FFFF"/>
<path d="M136.494 102.839C136.494 103.803 135.713 104.585 134.749 104.585C133.785 104.585 133.003 103.803 133.003 102.839V87.5657C133.002 86.9872 132.772 86.4326 132.363 86.0236C131.954 85.6145 131.4 85.3844 130.821 85.3838H78.8917C77.5034 85.3853 76.1723 85.9375 75.1906 86.9193C74.2089 87.901 73.6567 89.232 73.6551 90.6203V101.094C73.6551 102.058 72.8736 102.839 71.9096 102.839C70.9456 102.839 70.1641 102.058 70.1641 101.094V90.6203C70.1667 88.3064 71.0871 86.0881 72.7232 84.4519C74.3594 82.8157 76.5778 81.8953 78.8917 81.8927H130.821C132.325 81.8944 133.767 82.4926 134.831 83.5561C135.894 84.6197 136.492 86.0616 136.494 87.5657V102.839Z" fill="#F8FFFF"/>
<path d="M119.039 118.549H80.6371C79.6731 118.549 78.8916 119.33 78.8916 120.294C78.8916 121.258 79.6731 122.04 80.6371 122.04H119.039C120.003 122.04 120.784 121.258 120.784 120.294C120.784 119.33 120.003 118.549 119.039 118.549Z" fill="#F8FFFF"/>
<path d="M56.1996 67.9284C56.1993 68.6852 56.234 69.4415 56.3035 70.1947C56.3543 70.7446 55.972 71.2475 55.4246 71.3207L53.9456 71.5184C53.3985 71.5915 52.8937 71.2076 52.8403 70.6581C52.8383 70.637 52.8363 70.6159 52.8343 70.5947C52.7667 69.8819 52.0159 69.4328 51.4109 69.8158C49.5083 71.0204 47.9665 72.7334 46.9687 74.774C45.749 77.2686 45.415 80.1042 46.0219 82.814C46.6287 85.5237 48.1401 87.9461 50.3073 89.6822C52.4745 91.4184 55.1683 92.3649 57.9451 92.3658H64.9272C65.8913 92.3658 66.6728 93.1473 66.6728 94.1113C66.6728 95.0754 65.8913 95.8569 64.9272 95.8569H57.9451C54.2277 95.8563 50.6309 94.5377 47.794 92.1354C44.9571 89.7332 43.0638 86.4029 42.4506 82.7364C41.8374 79.0699 42.5441 75.3048 44.445 72.1101C46.2361 69.1002 48.978 66.7804 52.229 65.5101C52.594 65.3675 52.8554 65.0377 52.9019 64.6487C53.6986 57.9773 56.8724 51.8073 61.8535 47.277C66.7459 42.8272 73.0484 40.2626 79.6359 40.0191C80.1882 39.9987 80.637 40.4484 80.637 41.0012V42.4922C80.637 43.044 80.1896 43.4894 79.6382 43.5125C73.5224 43.7689 67.7104 46.311 63.365 50.6564C58.7836 55.2378 56.2067 61.4494 56.1996 67.9284Z" fill="#F8FFFF"/>
<path d="M136.057 76.4669C136.284 77.4049 135.595 78.2826 134.638 78.402C133.683 78.5212 132.824 77.8393 132.568 76.9115C131.94 74.6296 130.659 72.5658 128.865 70.9842C126.633 69.0165 123.76 67.9301 120.785 67.9284C120.273 67.9294 119.761 67.9629 119.253 68.0288C119.006 68.0598 118.754 68.0372 118.516 67.9628C118.278 67.8883 118.058 67.7637 117.872 67.5972C117.687 67.4307 117.538 67.2263 117.438 66.9978C117.338 66.7693 117.288 66.5219 117.292 66.2724L117.294 66.1851C117.295 64.9052 116.944 63.6497 116.279 62.5558C115.615 61.462 114.662 60.572 113.526 59.9831C112.389 59.3943 111.113 59.1294 109.836 59.2173C108.559 59.3052 107.331 59.7426 106.286 60.4816C106.066 60.6369 105.814 60.7393 105.548 60.7809C105.282 60.8225 105.011 60.8022 104.754 60.7215C104.497 60.6408 104.263 60.502 104.069 60.3158C103.875 60.1296 103.726 59.9011 103.635 59.6481C101.922 54.921 98.797 50.8351 94.683 47.9448C90.569 45.0545 85.6655 43.4996 80.6377 43.4911V40C86.0353 40.0098 91.3151 41.5786 95.8424 44.5176C100.37 47.4567 103.951 51.6409 106.157 56.5672C107.615 55.9382 109.196 55.6487 110.782 55.7205C112.368 55.7922 113.917 56.2234 115.311 56.9814C116.706 57.7394 117.911 58.8045 118.833 60.0961C119.756 61.3878 120.374 62.8722 120.639 64.4374H120.785C124.611 64.4403 128.305 65.838 131.174 68.3688C133.604 70.5124 135.302 73.3442 136.057 76.4669Z" fill="#F8FFFF"/>
</svg>
